<svg width="34" height="38" viewBox="0 0 34 38" fill="none" xmlns="http://www.w3.org/2000/svg">
<path d="M29.75 2.09877V4.19753H25.5V2.09877C25.5 0.944444 24.5437 0 23.375 0H10.625C9.45625 0 8.5 0.944444 8.5 2.09877V4.19753H4.25V2.09877C4.25 0.944444 3.29375 0 2.125 0C0.95625 0 0 0.944444 0 2.09877V35.679C0 36.8333 0.95625 37.7778 2.125 37.7778C3.29375 37.7778 4.25 36.8333 4.25 35.679V33.5802H8.5V35.679C8.5 36.8333 9.45625 37.7778 10.625 37.7778H23.375C24.5437 37.7778 25.5 36.8333 25.5 35.679V33.5802H29.75V35.679C29.75 36.8333 30.7062 37.7778 31.875 37.7778C33.0437 37.7778 34 36.8333 34 35.679V2.09877C34 0.944444 33.0437 0 31.875 0C30.7062 0 29.75 0.944444 29.75 2.09877ZM8.5 29.3827H4.25V25.1852H8.5V29.3827ZM8.5 20.9877H4.25V16.7901H8.5V20.9877ZM8.5 12.5926H4.25V8.39506H8.5V12.5926ZM29.75 29.3827H25.5V25.1852H29.75V29.3827ZM29.75 20.9877H25.5V16.7901H29.75V20.9877ZM29.75 12.5926H25.5V8.39506H29.75V12.5926Z" fill="#111111"/>
</svg>
